<?xml version="1.0" encoding="UTF-8"?>
<svg version="1.1" viewBox="0 0 1600 1600" width="1280" height="1280" xmlns="http://www.w3.org/2000/svg">
<path transform="translate(846,378)" d="m0 0c0.96 0.11 1.93 0.22 2.92 0.34 18.6 2.19 36.9 5.38 55.1 9.85 0.8 0.19 1.61 0.39 2.43 0.59 13.8 3.37 27.2 7.28 40.5 12.2 1.2 0.44 1.2 0.44 2.42 0.88 22.2 8.16 44.6 18.3 64.6 30.9 2.25 1.39 4.52 2.72 6.81 4.04 11.2 6.53 21.8 13.7 32.1 21.6 1.89 1.44 3.79 2.87 5.69 4.29 14.4 10.8 27.5 22.9 40.4 35.3 0.83 0.8 0.83 0.8 1.68 1.61 5.86 5.64 11.2 11.5 16.2 17.9 1.85 2.23 3.74 4.18 5.85 6.15 5.88 5.74 10.6 12.5 15.5 19 1.72 2.3 3.46 4.58 5.21 6.86 9.09 12 17 24.5 24.5 37.5 0.44 0.74 0.87 1.48 1.32 2.24 6.2 10.5 11.5 21.4 16.6 32.4 0.89 1.9 1.81 3.8 2.73 5.69 3.35 6.95 6.13 14.1 8.85 21.3 0.36 0.94 0.71 1.88 1.08 2.86 5.5 14.8 10.3 29.7 14 45.1 0.19 0.79 0.38 1.58 0.58 2.39 2.71 11.2 5.02 22.5 6.8 33.9 0.18 1.2 0.37 2.39 0.56 3.63 0.56 3.8 1.05 7.61 1.5 11.4 0.09 0.75 0.18 1.51 0.28 2.29 1.83 15.7 2.06 31.4 2.04 47.2-0.01 2.77 0 5.54 0.02 8.31 0.12 18.6-0.81 36.8-3.34 55.2-0.14 1.01-0.27 2.01-0.41 3.05-3.62 26.5-10.5 53.5-19.7 78.6-0.89 2.42-1.74 4.85-2.6 7.28-4.98 13.8-11.3 27-17.8 40.1-1.16 2.36-2.31 4.72-3.43 7.1-4.28 8.89-9.37 17.2-14.6 25.6-1.34 2.15-2.66 4.32-3.98 6.49-4.9 8.06-10.2 15.6-16 23-1.54 1.96-3.03 3.94-4.52 5.93-6.56 8.74-13.4 16.9-20.9 24.8-1.22 1.37-2.43 2.74-3.62 4.12-7.94 9.13-15.9 18-25.1 25.9-2.18 1.91-4.29 3.87-6.41 5.85-19.9 18.6-43 34.9-66.9 48-2.86 1.57-5.64 3.24-8.41 4.95-7.05 4.25-14.4 7.84-21.8 11.4-0.76 0.37-1.52 0.74-2.31 1.12-15.1 7.35-30.5 13.3-46.4 18.7-1.63 0.57-3.26 1.14-4.89 1.72-21 7.21-43.2 11.8-65.2 15.2-1.23 0.19-2.47 0.38-3.74 0.57-20.2 2.92-40.5 3.89-61 3.81-3.45-0.01-6.89 0-10.3 0.01-14.1 0.01-27.9-0.66-41.9-2.27-0.71-0.08-1.42-0.16-2.15-0.24-62.8-7.19-123-29.6-176-63.8-0.95-0.6-1.91-1.2-2.89-1.82-5.87-3.69-11.6-7.53-17.2-11.6-1.17-0.85-1.17-0.85-2.37-1.72-5.65-4.13-11.2-8.34-16.6-12.8-0.76-0.63-0.76-0.63-1.53-1.27-16-13.4-32.1-27.6-45.6-43.5-1.52-1.8-3.07-3.56-4.65-5.32-18-20.3-33.6-42.4-47.1-66-1.04-1.81-2.1-3.6-3.17-5.39-5.51-9.34-10.1-19-14.7-28.9-1.36-2.86-2.82-5.66-4.27-8.48-3.23-6.43-5.66-13-8.01-19.8-0.6-1.7-0.6-1.7-1.21-3.43-1.05-2.99-2.09-5.98-3.12-8.98-0.46-1.36-0.93-2.72-1.4-4.08-3.77-10.9-7.05-21.8-9.77-33-0.19-0.78-0.38-1.55-0.57-2.34-3.12-12.9-5.48-25.8-7.43-38.8-0.12-0.83-0.25-1.65-0.38-2.5-2.66-18-3.31-35.7-3.31-53.9 0-3.29-0.02-6.57-0.03-9.86-0.06-20 1.32-39.7 4.34-59.4 0.11-0.67 0.21-1.35 0.32-2.04 3.49-22.7 8.9-45.4 16.6-67 0.4-1.13 0.79-2.25 1.2-3.41 5.34-15.1 10.9-30.1 17.8-44.6 0.29-0.62 0.58-1.24 0.87-1.87 11.5-24.6 26.1-47.5 42.6-69.1 1.61-2.11 3.19-4.24 4.78-6.37 6.16-8.25 12.6-16 19.7-23.4 2.2-2.29 4.29-4.65 6.36-7.05 4.17-4.8 8.64-9.28 13.2-13.8 0.81-0.81 1.61-1.63 2.44-2.46 4.33-4.32 8.74-8.48 13.4-12.5 2.25-1.95 4.39-4.02 6.55-6.07 7.18-6.55 15-12.1 22.9-17.8 1.97-1.42 3.94-2.87 5.89-4.33 8.88-6.56 18.2-12.2 27.8-17.8 2.52-1.47 5.02-2.96 7.53-4.46 33.6-19.8 69.1-34.1 107-43.1 1.18-0.28 2.36-0.56 3.58-0.85 17.3-4.06 34.7-7.02 52.4-9.15 0.94-0.12 1.87-0.24 2.83-0.36 29.4-3.6 60.8-3.25 90.2 0.36zm-110 26.6c-1.12 0.19-1.12 0.19-2.28 0.39-23.6 3.99-46.9 9.64-69.3 18-0.8 0.3-1.6 0.6-2.43 0.9-19.4 7.32-38.6 15.8-56.6 26.1-0.97 0.55-1.95 1.11-2.95 1.68-14.3 8.16-28 16.7-41.1 26.8-1.85 1.43-3.71 2.83-5.58 4.21-7.42 5.52-14.2 11.6-20.9 17.9-4.76 4.47-9.58 8.92-14.7 13-2.85 2.48-5.19 5.08-7.63 7.95-2.23 2.55-4.53 5.02-6.85 7.49-6.07 6.45-11.9 13-17.3 20-0.78 0.98-1.55 1.96-2.35 2.97-18.2 23.3-33.8 48.3-46.6 74.9-0.67 1.39-1.34 2.77-2.02 4.15-15.6 31.8-26.3 67.1-32 102-0.14 0.82-0.28 1.64-0.42 2.49-5.95 35.8-6.82 73.5-2.58 110 0.13 1.1 0.26 2.2 0.39 3.33 5.22 42.9 16.7 85.6 36.4 124 1.12 2.2 2.21 4.42 3.28 6.65 15.1 31.2 34.8 60.6 58.4 86 2.11 2.28 4.18 4.59 6.22 6.93 0.55 0.63 1.1 1.26 1.66 1.9 1.24 1.43 2.48 2.87 3.72 4.3 5.46 6.22 11.3 11.8 17.5 17.3 1.44 1.3 2.87 2.63 4.29 3.95 5.89 5.49 12 10.4 18.5 15.2 1.84 1.36 3.66 2.74 5.48 4.13 12.1 9.22 24.5 17.8 37.8 25.2 2.22 1.24 4.42 2.51 6.61 3.81 10 5.91 20.4 10.8 31 15.7 2.9 1.39 5.75 2.86 8.61 4.34 7.01 3.52 14.3 6.25 21.6 8.91 0.71 0.25 1.42 0.51 2.15 0.78 43.2 15.6 88 22.6 134 22.5 1.6 0 1.6 0 3.23-0.01 43.5-0.08 86.4-6.33 127-21.1 2.95-1.07 5.91-2.1 8.88-3.14 13.7-4.87 26.6-10.9 39.5-17.6 2.14-1.1 4.28-2.17 6.45-3.21 29.1-14 56.3-33.4 80.1-55.1 1.47-1.32 2.95-2.63 4.44-3.94 0.92-0.82 0.92-0.82 1.87-1.65 1.69-1.41 1.69-1.41 4.69-3.41v-2c0.57-0.24 1.14-0.49 1.73-0.74 6.51-3.61 11.6-10.4 16.4-16.1 2.28-2.61 4.67-5.11 7.04-7.64 6.24-6.72 11.7-14 17.2-21.3 1.65-2.2 3.34-4.37 5.03-6.54 10.6-13.8 19.2-28.6 27.7-43.7 0.48-0.85 0.96-1.7 1.45-2.57 2.65-4.75 5.15-9.55 7.55-14.4 0.61-1.23 0.61-1.23 1.24-2.49 21.1-42.9 33.8-90.9 37.8-139 0.13-1.54 0.13-1.54 0.26-3.1 0.8-10.6 0.94-21.2 0.93-31.8 0-0.9 0-1.81-0.01-2.74-0.09-40.7-5.86-81.7-19.2-120-0.54-1.59-0.54-1.59-1.09-3.21-4.98-14.6-10.3-28.8-16.9-42.7-0.89-1.9-1.74-3.83-2.58-5.75-10.2-23-24.2-44.4-39.4-64.4-1.5-2.02-3-4.04-4.5-6.06-12.1-16.1-25.8-30.3-40-44.6-0.82-0.83-1.65-1.66-2.5-2.52-19-19-41-35.1-64-48.9-0.92-0.55-1.83-1.11-2.78-1.68-22-13.3-44.9-24.7-69.2-33.3-0.85-0.31-1.7-0.61-2.57-0.93-24.8-8.9-50.4-15.2-76.4-19.1-0.94-0.14-1.87-0.29-2.83-0.43-2.85-0.43-5.7-0.85-8.55-1.26-1.22-0.18-1.22-0.18-2.48-0.36-14.7-2-29.6-2.14-44.4-2.14-2.87 0-5.73-0.02-8.6-0.03-19-0.06-37.7 1.65-56.5 4.84z"/>
<path transform="translate(854,578)" d="m0 0c13.6-0.05 27.2-0.08 40.9-0.1 6.33-0.01 12.6-0.03 19-0.05 6.12-0.02 12.2-0.03 18.4-0.04 2.32 0 4.64-0.01 6.97-0.02 17.1-0.08 34.4-0.05 51 4.46 0.82 0.22 1.65 0.44 2.5 0.66 19.2 5.22 37.7 13.6 53.3 26.1 0.85 0.65 1.7 1.3 2.58 1.97 13.1 10.2 24.5 22 33.4 36 0.42 0.64 0.83 1.28 1.26 1.94 24.2 37.6 30.4 83.1 21.3 126-6.44 29-20.2 54.1-40.6 75.6-1.1 1.16-1.1 1.16-2.21 2.34-27.2 27.9-67.4 43.8-106 44.7-7.16 0.09-14.3 0.06-21.5 0.05-2.32 0-4.63-0.01-6.95-0.01-6.05 0-12.1-0.01-18.2-0.02-6.2-0.01-12.4-0.02-18.6-0.02-12.1-0.01-24.2-0.03-36.4-0.05-1.43-201-1.43-201 0-320zm69 64v192c34.8 0 62.9-2.4 88-27 18.6-19.5 26.5-45.8 26.2-72.5-1.09-25.9-9.99-50.8-29.2-68.9-25.4-21.7-52-23.6-84.9-23.6z"/>
<path transform="translate(635 578)" d="m0 0c1.06 0 2.13 0 3.22 0.01h3.64c1.31 0 2.62 0.01 3.96 0.01 1.35 0 2.69 0.01 4.04 0.01 3.54 0 7.08 0.01 10.6 0.02 3.62 0.01 7.23 0.02 10.8 0.02 7.1 0.01 14.2 0.03 21.3 0.05 5.96 14.3 11.9 28.6 17.6 43.1 5.04 12.7 10.2 25.3 15.4 37.9 5.09 12.4 10.2 24.8 15.1 37.3 5.19 13.1 10.5 26.1 15.9 39.1 5.62 13.7 11.2 27.4 16.8 41.1 1.68 4.15 3.37 8.31 5.07 12.5 4.77 11.7 9.5 23.4 14.2 35.1 8.5 21.3 17.2 42.5 26 63.7 0.48 1.16 0.48 1.16 0.97 2.34 0.56 1.29 0.56 1.29 1.13 2.61 0.87 2.39 0.87 2.39 0.87 5.39h-75c-7.8-21.3-15.4-42.6-23-64h-122c-2.63 6.57-5.17 13.1-7.53 19.8-0.32 0.89-0.63 1.78-0.96 2.7-1.01 2.82-2.01 5.64-3.01 8.46-0.67 1.88-1.34 3.77-2.01 5.65-0.33 0.92-0.65 1.83-0.99 2.78-1.23 3.46-2.46 6.92-3.7 10.4-0.71 2-1.42 3.99-2.12 5.98-0.36 1-0.72 2-1.08 3.02-0.3 0.82-0.59 1.64-0.89 2.49-0.71 1.76-0.71 1.76-1.71 2.76-2.34 0.1-4.65 0.13-7 0.11h-2.21c-2.43 0-4.86 0-7.29-0.01-1.68 0-3.36-0.01-5.04-0.01-4.43 0-8.86-0.01-13.3-0.02-4.52-0.01-9.04-0.02-13.6-0.02-8.87-0.01-17.7-0.03-26.6-0.05 1.76-5.43 3.64-10.8 5.83-16 0.27-0.64 0.53-1.28 0.8-1.94 0.58-1.38 1.15-2.75 1.72-4.13 1.57-3.77 3.13-7.55 4.69-11.3 0.49-1.18 0.49-1.18 0.99-2.39 3.55-8.59 7.05-17.2 10.5-25.8 0.64-1.57 1.27-3.13 1.9-4.69 0.94-2.31 1.88-4.63 2.81-6.95 2.85-7.03 5.7-14 8.55-21.1 0.8-1.97 1.61-3.94 2.41-5.91 2.4-5.93 4.81-11.8 7.23-17.8 5.55-13.6 11.1-27.3 16.5-41s11-27.3 16.6-41c1.87-4.59 3.74-9.19 5.6-13.8 4.58-11.3 9.17-22.6 13.8-33.9 0.33-0.82 0.67-1.64 1.02-2.48 0.68-1.67 1.37-3.34 2.05-5.01 0.34-0.83 0.68-1.65 1.03-2.5 0.34-0.83 0.68-1.65 1.03-2.49 5.08-12.4 10.1-24.7 15-37.2 9.02-22.7 9.02-22.7 12.3-22.9zm26.6 84.1c-3.26 7.62-6.22 15.3-8.87 23.1-4.05 11.8-8.23 23.6-12.4 35.4-0.32 0.9-0.64 1.79-0.97 2.71-5.01 14-10.1 28-15.2 42-0.24 0.66-0.48 1.31-0.73 1.98-0.64 1.75-1.27 3.49-1.91 5.23-0.92 2.2-0.92 2.2-0.87 3.48h82c-0.83-4.14-1.86-7.79-3.23-11.8-0.23-0.67-0.45-1.33-0.69-2.01-0.75-2.2-1.51-4.4-2.27-6.59-0.26-0.77-0.52-1.53-0.79-2.32-4.84-14.1-9.86-28.1-14.9-42.1-2.75-7.62-5.48-15.2-8.1-22.9-0.23-0.68-0.47-1.35-0.7-2.05-1.07-3.13-2.14-6.26-3.19-9.4-1.75-5.14-3.47-10.1-6.11-14.8h-1z"/>
<path transform="translate(697,924)" d="m0 0h2c1.2 2.41 1.1 3.95 1.06 6.62-0.01 0.82-0.02 1.64-0.02 2.48-0.02 0.63-0.03 1.25-0.04 1.9 0.8-0.33 1.61-0.66 2.44-1 6.03-1.69 11.9-1.94 17.6 1l2-6h6l2 6c7.66-0.22 14-0.56 20.8-4.16 3.59-1.35 7.07-0.93 10.8-0.59 0.78-0.08 1.57-0.16 2.38-0.25 1.03-1.31 2.03-2.64 3-4h4c1.63 4.86 0.07 8.46-1.75 13-0.27 0.7-0.53 1.4-0.8 2.12-1.2 3.07-2.41 5.81-4.15 8.63-1.63 2.39-1.63 2.39-1.3 6.25 0.63 0.16 1.25 0.32 1.9 0.48 0.82 0.23 1.63 0.47 2.48 0.71 1.21 0.33 1.21 0.33 2.46 0.67 2.88 1.52 3.1 3.15 4.16 6.14 1.08 0 1.08 0 2.19-0.01 17.6-0.04 35.2-0.07 52.8-0.09 8.5-0.01 17-0.03 25.5-0.05 7.41-0.02 14.8-0.03 22.2-0.04 3.92 0 7.85-0.01 11.8-0.02 3.7-0.02 7.39-0.02 11.1-0.02 2.01 0 4.01-0.01 6.01-0.02 1.2 0 2.39 0.01 3.62 0.01 1.55 0 1.55 0 3.14-0.01 2.76 0.26 4.4 0.69 6.69 2.25 0.73 2.83 0.94 5.56 1.21 8.47 0.52 2.7 0.52 2.7 2.87 3.66 3.5 1.04 6.81 1.22 10.4 1.28 1.16 0.03 1.16 0.03 2.33 0.06 2.62 0.06 5.23 0.11 7.85 0.15 0.91 0.02 1.82 0.04 2.76 0.06 14.3 0.3 28.6 0.35 42.9 0.34h2.54c8.48 0 17-0.01 25.4-0.05 3.22-0.01 6.43-0.02 9.64-0.03 2.26 0 4.51-0.02 6.76-0.03 1.35 0 2.71 0 4.06-0.01 1.18 0 2.36-0.01 3.58-0.01 2.63 0.11 2.63 0.11 3.63 1.11 0.36 6.46 0.36 6.46-2 10-2.47 0.26-2.47 0.26-5.67 0.09-1.81-0.07-1.81-0.07-3.67-0.15-0.66-0.04-1.32-0.07-2-0.11-3.62-0.19-7.25-0.32-10.9-0.47-0.78-0.03-1.56-0.06-2.37-0.09-9.56-0.38-19.1-0.48-28.7-0.59-1.83-0.02-3.67-0.04-5.5-0.06-4.63-0.05-9.26-0.1-13.9-0.15-4.8-0.05-9.59-0.11-14.4-0.16-9.31-0.11-18.6-0.21-27.9-0.31-0.09 0.63-0.19 1.26-0.29 1.91-0.23 0.69-0.47 1.38-0.71 2.09-2.33 1.02-4.66 2.01-7 3-0.7 1.32-1.37 2.65-2 4-3.45 0.95-6.67 1.11-10.2 1.04-1.04-0.01-2.07-0.03-3.13-0.04-1.13-0.02-2.25-0.05-3.41-0.07-1.19-0.02-2.38-0.04-3.6-0.06-3.26-0.05-6.52-0.11-9.77-0.17-3.41-0.07-6.81-0.12-10.2-0.18-6.45-0.11-12.9-0.22-19.3-0.34-7.34-0.13-14.7-0.26-22-0.38-15.1-0.26-30.2-0.53-45.3-0.8l1-9c-4.08 2.1-6.03 3.85-8 8-0.44 3.64-0.44 3.64-0.31 7.5 0 1.29 0.01 2.58 0.01 3.91 0.28 3.32 0.86 5.61 2.3 8.59-2.48 0.99-2.48 0.99-5 2 0.99 13.4 2.85 26.2 8.16 38.7 0.84 2.27 0.84 2.27 0.84 6.27-9.88 4.35-19.9 8.29-30 12-3.62-4.84-5.4-9.52-7.06-15.3-0.26-0.88-0.52-1.75-0.78-2.65-3.1-10.9-4.8-21.8-6.16-33-2.97-0.49-2.97-0.49-6-1v-2c0.99-0.33 1.98-0.66 3-1 1.31-2.62 0.9-4.23 0.56-7.12-0.18-1.61-0.37-3.22-0.56-4.88h-15l-1 8h-1l-1-8c-2-0.04-4-0.04-6 0-1.88 1.88-1.18 4.5-1.23 6.99 0.11 2.33 0.11 2.33 2.23 5.01 2.89 0.58 2.89 0.58 6.12 0.69 1.1 0.06 2.2 0.13 3.33 0.2 0.84 0.03 1.68 0.07 2.55 0.11v1l-20 2c-0.56 2.2-0.56 2.2-1.12 4.44-1.42 4.75-3.48 8.26-6.33 12.3-4.29 6.32-7.03 12.8-8.55 20.3-3.1 0.99-5.03 0.98-8.15 0.11-1.17-0.32-1.17-0.32-2.36-0.65-0.8-0.24-1.6-0.47-2.43-0.71-0.8-0.22-1.59-0.44-2.42-0.66-4.29-1.22-7.92-2.54-11.6-5.09 0.91-4.31 3.08-7.59 5.44-11.2 0.44-0.7 0.88-1.4 1.34-2.12 1.86-2.94 3.74-5.88 5.62-8.81 0.91-1.42 1.82-2.84 2.73-4.27 0.85-1.33 1.7-2.65 2.56-3.97 3.27-5.14 6.48-10.6 6.12-16.8-0.73-2.48-1.43-4.56-2.81-6.75-2.57-1.28-4.77-1.33-7.62-1.56-1.01-0.09-2.01-0.17-3.04-0.26-0.77-0.06-1.55-0.12-2.34-0.18-0.12-5.75-0.12-5.75 1-8-3.47 0.76-3.47 0.76-5 5h-17v12c-2.73 0.2-5.47 0.39-8.2 0.59-2.7 0.39-4.47 1.05-6.8 2.41l-2-3c-3.51 0.61-5.55 1.97-8.31 4.19-1.18 0.94-1.18 0.94-2.37 1.89-2.66 2.2-5.26 4.45-7.81 6.76-1.51 1.16-1.51 1.16-4.51 2.16l-2-5c-4.98 1.5-9.45 3.59-14.1 5.94-0.7 0.34-1.39 0.69-2.11 1.05-2.96 1.49-5.82 3-8.64 4.76-2.19 1.25-2.19 1.25-5.19 1.25-0.48-2.67-0.96-5.33-1.44-8-0.13-0.74-0.27-1.49-0.41-2.25-1.72-9.65-2.36-18.9-2.4-28.7-0.02-1.22-0.04-2.45-0.06-3.71-0.03-7.13 0.6-12.7 3.31-19.4 4.75 0.88 4.75 0.88 7 2 1.45 0.15 2.9 0.25 4.35 0.32 1.28 0.06 1.28 0.06 2.58 0.12 0.89 0.04 1.78 0.08 2.69 0.12 1.35 0.07 1.35 0.07 2.72 0.13 2.22 0.11 4.44 0.21 6.66 0.31v-2c0.69 0.32 1.37 0.65 2.08 0.98 3.37 1.18 6.07 1.3 9.64 1.34 0.65 0.01 1.31 0.02 1.98 0.03 2.15 0.03 4.3 0.05 6.44 0.06 1.5 0.02 2.99 0.04 4.49 0.06 3.92 0.05 7.85 0.09 11.8 0.13 4.01 0.04 8.02 0.09 12 0.14 7.86 0.1 15.7 0.18 23.6 0.26 0.29-0.8 0.57-1.61 0.87-2.43 1.13-2.57 1.13-2.57 3.22-3.64 0.8-0.21 1.59-0.41 2.41-0.62 3.63-0.93 3.63-0.93 6.5-3.31 2.89-0.32 2.89-0.32 6.54-0.41 1.3-0.04 2.6-0.08 3.94-0.12 1.38-0.03 2.76-0.06 4.14-0.09l4.17-0.12c3.4-0.1 6.81-0.18 10.2-0.26 0.93-4.03 0.85-6.94 0-11-1.7 0.02-1.7 0.02-3.43 0.04-1.48 0-2.96 0.01-4.45 0.02-0.74 0.01-1.49 0.02-2.26 0.03-5.63 0.02-5.63 0.02-7.86-1.09-1.87-0.07-3.75-0.08-5.62-0.06-1.51 0.01-1.51 0.01-3.04 0.02-1.16 0.02-1.16 0.02-2.34 0.04-1.74-5.98-2.05-12.6 0.44-18.3 0.51-0.89 1.03-1.78 1.56-2.69 0.71-3.24 0.71-3.24 1-6zm126 52v3h6l-1-3h-5zm24.9 0.5c-1.11 0.09-2.21 0.19-3.35 0.28-0.85 0.07-1.71 0.15-2.59 0.22v2h14l-1-3c-2.35 0-4.72 0.3-7.06 0.5zm23.1 0.5v2h11v-2h-11zm-46 14-1 2c0.99-0.33 1.98-0.66 3-1l-2-1zm21 0-1 2 8 1-1-3h-6zm-254 6v3h18l-1-3h-17z"/>
<path transform="translate(733,1023)" d="m0 0 2 1z"/>
</svg>
